<svg width="20.000000" height="20.000000" viewBox="0 0 20 20" fill="none" xmlns="http://www.w3.org/2000/svg" xmlns:xlink="http://www.w3.org/1999/xlink">
	<desc>
			Created with Pixso.
	</desc>
	<defs>
		<clipPath id="clip191_6105">
			<rect id="Outline / Messages, Conversation /  Chat Round " width="20.000000" height="20.000000" fill="white" fill-opacity="0"/>
		</clipPath>
	</defs>
	<g clip-path="url(#clip191_6105)">
		<path id="Vector" d="M18.96 10C18.96 5.05 14.94 1.04 10 1.04C5.05 1.04 1.04 5.05 1.04 10C1.04 11.43 1.37 12.78 1.98 13.98C2.07 14.16 2.08 14.35 2.04 14.5L1.55 16.36C1.21 17.63 2.37 18.79 3.64 18.45L5.49 17.95C5.65 17.91 5.83 17.93 6.01 18.02C7.21 18.62 8.57 18.95 10 18.95C14.94 18.95 18.96 14.94 18.96 10ZM10 2.29C14.26 2.29 17.71 5.74 17.71 10C17.71 14.25 14.26 17.7 10 17.7C8.76 17.7 7.6 17.41 6.57 16.9C6.15 16.69 5.66 16.61 5.17 16.74L3.32 17.24C2.97 17.33 2.66 17.02 2.75 16.68L3.25 14.82C3.38 14.34 3.3 13.84 3.09 13.43C2.58 12.39 2.29 11.23 2.29 10C2.29 5.74 5.74 2.29 10 2.29Z" fill="#0F0F0F" fill-opacity="0.700000" fill-rule="evenodd"/>
	</g>
</svg>
