<svg width="20.000000" height="20.000000" viewBox="0 0 20 20" fill="none" xmlns="http://www.w3.org/2000/svg" xmlns:xlink="http://www.w3.org/1999/xlink">
	<desc>
			Created with Pixso.
	</desc>
	<defs>
		<clipPath id="clip382_22670">
			<rect id="paper-clip 1" width="20.000000" height="20.000000" fill="white" fill-opacity="0"/>
		</clipPath>
	</defs>
	<rect id="paper-clip 1" width="20.000000" height="20.000000" fill="#FFFFFF" fill-opacity="0"/>
	<g clip-path="url(#clip382_22670)">
		<path id="Vector" d="M4.7 17C4.03 17 3.37 16.72 2.86 16.22C1.71 15.1 1.71 13.28 2.86 12.17L11.82 2.94C13.21 1.58 15.35 1.7 16.92 3.22C17.62 3.9 18.01 4.88 18 5.91C17.98 6.93 17.57 7.91 16.87 8.59L10.1 15.58C9.91 15.78 9.59 15.79 9.39 15.6C9.19 15.42 9.18 15.11 9.37 14.92L16.15 7.91C16.68 7.4 16.99 6.67 17 5.9C17.01 5.13 16.72 4.4 16.21 3.91C15.25 2.97 13.69 2.49 12.53 3.61L3.57 12.84C2.8 13.59 2.8 14.8 3.56 15.53C3.92 15.88 4.34 16.05 4.79 16.02C5.24 16 5.7 15.77 6.08 15.4L13.21 8.04C13.47 7.79 13.99 7.17 13.46 6.66C13.16 6.37 12.95 6.39 12.88 6.39C12.69 6.41 12.45 6.54 12.22 6.77L6.85 12.31C6.66 12.5 6.34 12.51 6.14 12.33C5.94 12.15 5.93 11.84 6.12 11.64L11.5 6.1C11.92 5.69 12.35 5.46 12.79 5.42C13.14 5.4 13.65 5.47 14.17 5.97C14.94 6.72 14.84 7.83 13.93 8.71L6.8 16.07C6.23 16.63 5.54 16.95 4.85 16.99C4.8 16.99 4.75 17 4.7 17Z" fill="#FFFFFF" fill-opacity="1.000000" fill-rule="nonzero"/>
	</g>
</svg>
