<svg width="20.000000" height="20.000000" viewBox="0 0 20 20" fill="none" xmlns="http://www.w3.org/2000/svg" xmlns:xlink="http://www.w3.org/1999/xlink">
	<desc>
			Created with Pixso.
	</desc>
	<defs>
		<clipPath id="clip191_6161">
			<rect id="Outline / Essentional, UI / Crown Minimalistic" width="20.000000" height="20.000000" fill="white" fill-opacity="0"/>
		</clipPath>
	</defs>
	<g clip-path="url(#clip191_6161)">
		<path id="Vector" d="M9.82 2.52C9.62 2.82 9.39 3.29 9.04 3.99L7.17 7.84C7 8.18 6.86 8.47 6.72 8.69C6.58 8.92 6.39 9.17 6.1 9.31C5.84 9.45 5.55 9.49 5.26 9.45C4.93 9.4 4.68 9.21 4.48 9.03C4.3 8.86 4.08 8.62 3.85 8.34L3.82 8.32C3.32 7.74 2.97 7.34 2.7 7.09C2.57 6.97 2.48 6.9 2.42 6.87C2.42 6.87 2.42 6.87 2.42 6.87C2.39 6.88 2.36 6.9 2.33 6.94C2.33 6.94 2.28 7.04 2.28 7.43C2.29 7.83 2.34 8.4 2.42 9.21L2.61 11.24C2.76 12.92 2.88 14.14 3.07 15.06C3.26 15.96 3.51 16.5 3.89 16.88C4.25 17.26 4.72 17.47 5.5 17.58C6.31 17.7 7.36 17.7 8.86 17.7L11.12 17.7C12.62 17.7 13.67 17.7 14.48 17.58C15.26 17.47 15.73 17.26 16.1 16.88C16.47 16.5 16.72 15.96 16.91 15.06C17.1 14.14 17.22 12.92 17.38 11.24L17.57 9.21C17.64 8.4 17.7 7.83 17.7 7.43C17.7 7.04 17.66 6.94 17.66 6.94C17.66 6.94 17.66 6.94 17.66 6.95C17.63 6.9 17.59 6.88 17.57 6.87C17.57 6.87 17.57 6.87 17.56 6.87C17.51 6.9 17.42 6.97 17.29 7.09C17.02 7.34 16.67 7.74 16.16 8.32L16.14 8.34C15.9 8.62 15.69 8.86 15.5 9.03C15.3 9.21 15.06 9.4 14.73 9.45C14.44 9.49 14.14 9.45 13.88 9.31C13.59 9.17 13.41 8.92 13.26 8.69C13.13 8.47 12.98 8.18 12.82 7.84L10.94 3.99C10.6 3.29 10.37 2.82 10.17 2.52C10.08 2.4 10.03 2.34 9.99 2.31C9.96 2.34 9.9 2.4 9.82 2.52ZM10.03 2.28C10.03 2.28 10.03 2.28 10.02 2.28C10.03 2.28 10.03 2.28 10.03 2.28ZM9.96 2.28C9.96 2.28 9.96 2.28 9.96 2.28C9.96 2.28 9.96 2.28 9.96 2.28ZM8.78 1.83C9.03 1.45 9.41 1.04 9.99 1.04C10.58 1.04 10.96 1.45 11.21 1.83C11.46 2.2 11.73 2.75 12.04 3.4L13.93 7.26C14.11 7.64 14.23 7.87 14.33 8.04C14.4 8.16 14.44 8.19 14.45 8.2C14.48 8.21 14.5 8.22 14.52 8.21C14.54 8.21 14.58 8.18 14.65 8.11C14.79 7.99 14.96 7.8 15.22 7.49L15.25 7.47C15.72 6.92 16.11 6.48 16.43 6.18C16.6 6.02 16.77 5.88 16.95 5.78C17.14 5.68 17.37 5.6 17.64 5.62C18.03 5.65 18.38 5.85 18.62 6.15C18.92 6.51 18.95 7.01 18.95 7.44C18.95 7.9 18.89 8.52 18.82 9.29L18.62 11.4C18.46 13.03 18.34 14.32 18.14 15.31C17.92 16.33 17.6 17.13 16.99 17.76C16.37 18.39 15.6 18.68 14.66 18.82C13.76 18.95 12.61 18.95 11.17 18.95L8.81 18.95C7.37 18.95 6.23 18.95 5.32 18.82C4.38 18.68 3.62 18.39 3 17.76C2.39 17.13 2.07 16.33 1.85 15.31C1.64 14.32 1.52 13.03 1.37 11.4L1.17 9.29C1.1 8.52 1.04 7.9 1.03 7.44C1.03 7.01 1.07 6.51 1.36 6.15C1.6 5.85 1.96 5.65 2.35 5.62C2.62 5.6 2.85 5.68 3.03 5.78C3.21 5.88 3.39 6.02 3.55 6.18C3.87 6.48 4.26 6.92 4.74 7.47L4.76 7.49C5.03 7.8 5.2 7.99 5.33 8.11C5.41 8.18 5.45 8.21 5.46 8.21C5.49 8.22 5.51 8.21 5.53 8.2C5.55 8.19 5.58 8.16 5.66 8.04C5.76 7.87 5.87 7.64 6.06 7.26L7.94 3.4C8.26 2.75 8.52 2.2 8.78 1.83Z" fill="#0F0F0F" fill-opacity="0.700000" fill-rule="evenodd"/>
	</g>
</svg>
