<svg width="276" height="54" viewBox="0 0 276 54" fill="none" xmlns="http://www.w3.org/2000/svg">
<g clip-path="url(#clip0_132_8555)">
<path d="M15.1123 22.4294C16.2111 23.2632 17.3171 24.09 18.4587 24.8669C25.6938 29.806 30.8169 29.7846 38.1019 24.817C44.1454 20.6974 49.3113 15.2736 56.3466 12.5938V10.7764C56.3466 4.82513 51.516 0 45.5582 0H10.7884C4.83052 0 0 4.82513 0 10.7764V12.2731C3.01105 14.0406 5.75096 15.5587 8.3553 17.2835C10.7099 18.8444 12.8576 20.7117 15.1052 22.4294H15.1123ZM28.3481 11.8526C31.5447 11.8739 34.0562 14.8603 33.9492 18.5236C33.8493 21.9946 31.3306 24.7029 28.2268 24.6673C24.9803 24.6317 22.3617 21.6525 22.4473 18.1031C22.5329 14.6251 25.1587 11.8312 28.341 11.8526H28.3481Z" fill="white"/>
<path d="M0 19.5352V42.9338C0 48.8851 4.83052 53.7102 10.7884 53.7102H19.4291C21.2486 42.7129 9.70386 22.7282 0 19.5352Z" fill="white"/>
<path d="M37.0302 53.7108H45.5496C51.5075 53.7108 56.338 48.8857 56.338 42.9345V19.7354C46.4058 23.5627 35.7673 42.0507 37.0302 53.7108Z" fill="white"/>
<path d="M66.347 27.3437V2.87598H81.6163V6.05472H70.0359V12.7472H75.5157C77.3352 12.7472 78.8764 13.0394 80.1536 13.631C81.4236 14.2225 82.4012 15.0493 83.0719 16.1255C83.7426 17.2017 84.0851 18.4703 84.0851 19.9243C84.0851 21.3782 83.7497 22.6683 83.0719 23.7801C82.394 24.892 81.4236 25.7686 80.1536 26.3958C78.8835 27.023 77.3352 27.3366 75.5157 27.3366H66.3398L66.347 27.3437ZM70.043 24.2363H75.5228C76.5788 24.2363 77.4636 24.0296 78.1985 23.6162C78.9335 23.2028 79.4829 22.6611 79.861 22.0054C80.2392 21.3426 80.4318 20.637 80.4318 19.8815C80.4318 18.7839 80.0109 17.836 79.1618 17.0449C78.3198 16.2538 77.1068 15.8546 75.5228 15.8546H70.043V24.2434V24.2363Z" fill="white"/>
<path d="M89.4727 2.87598H93.133V20.8437H93.3613L105.826 2.87598H109.244V27.3437H105.548V9.39738H105.32L92.8833 27.3437H89.4727V2.87598Z" fill="white"/>
<path d="M115.637 27.3437V2.87598H124.37C126.275 2.87598 127.852 3.22521 129.108 3.91655C130.357 4.60789 131.298 5.55581 131.919 6.75318C132.54 7.95056 132.854 9.2976 132.854 10.7943C132.854 12.291 132.54 13.6523 131.912 14.8497C131.284 16.0471 130.342 16.995 129.087 17.6935C127.831 18.3919 126.254 18.7412 124.356 18.7412H118.355V15.6123H124.021C125.226 15.6123 126.204 15.4056 126.953 14.9851C127.702 14.5646 128.252 13.9944 128.601 13.2675C128.951 12.5405 129.129 11.7209 129.129 10.7943C129.129 9.86778 128.951 9.04815 128.601 8.33543C128.252 7.61558 127.695 7.05965 126.946 6.6534C126.19 6.24715 125.205 6.04759 123.978 6.04759H119.34V27.3508H115.644L115.637 27.3437Z" fill="white"/>
<path d="M136.416 27.3437L144.265 14.5361L136.973 2.87598H141.496L147.568 13.4599H156.98L163.009 2.87598H167.518L160.248 14.5575L168.046 27.3366H163.73L157.572 16.8952H146.94L140.697 27.3366H136.43L136.416 27.3437ZM154.054 2.87598V27.3437H150.394V2.87598H154.054Z" fill="white"/>
<path d="M174.737 27.3437H170.812L179.624 2.87598H183.891L192.703 27.3437H188.779L181.858 7.32336H181.665L174.73 27.3437H174.737ZM175.393 17.7576H188.115V20.8651H175.393V17.7576Z" fill="white"/>
<path d="M66.3496 50.5992V33.9072H72.4716C73.656 33.9072 74.6407 34.0997 75.4184 34.4917C76.1962 34.8837 76.7813 35.4039 77.1666 36.0668C77.5519 36.7296 77.7445 37.4708 77.7445 38.2976C77.7445 38.9961 77.6161 39.5805 77.3592 40.0509C77.1023 40.5213 76.7598 40.9062 76.3389 41.1912C75.9108 41.4763 75.4398 41.683 74.9332 41.8113V41.9752C75.4898 42.0037 76.0321 42.1819 76.5601 42.5098C77.0881 42.8376 77.5305 43.3009 77.8801 43.9067C78.2297 44.5125 78.4009 45.2466 78.4009 46.109C78.4009 46.9714 78.2012 47.7269 77.8016 48.404C77.402 49.0811 76.7884 49.6156 75.9536 50.0076C75.1188 50.3996 74.0556 50.5992 72.7641 50.5992H66.3567H66.3496ZM68.8755 41.1271H72.2504C72.8141 41.1271 73.3278 41.0202 73.7773 40.7992C74.234 40.5854 74.5908 40.279 74.8619 39.8798C75.133 39.4878 75.2686 39.0174 75.2686 38.4829C75.2686 37.7916 75.026 37.2143 74.5408 36.7439C74.0556 36.2735 73.3136 36.0454 72.3146 36.0454H68.8683V41.12L68.8755 41.1271ZM68.8755 48.4396H72.5144C73.7203 48.4396 74.5836 48.2044 75.1116 47.7412C75.6396 47.2779 75.8965 46.6863 75.8965 45.9879C75.8965 45.4604 75.7609 44.9758 75.4969 44.5339C75.2329 44.092 74.8476 43.7428 74.3624 43.4791C73.8701 43.2154 73.285 43.0871 72.6143 43.0871H68.8826V48.4325L68.8755 48.4396Z" fill="white"/>
<path d="M96.5884 42.253C96.5884 44.0349 96.2602 45.5672 95.6109 46.843C94.9616 48.1259 94.0626 49.1094 92.9281 49.7936C91.7936 50.4779 90.5093 50.8271 89.068 50.8271C87.6267 50.8271 86.3281 50.485 85.1936 49.7936C84.0591 49.1094 83.1672 48.1188 82.5107 46.8359C81.8614 45.553 81.5332 44.0206 81.5332 42.2459C81.5332 40.4712 81.8614 38.9318 82.5107 37.656C83.16 36.3731 84.0591 35.3895 85.1936 34.7053C86.3281 34.0211 87.6195 33.6719 89.068 33.6719C90.5164 33.6719 91.7936 34.014 92.9281 34.7053C94.0626 35.3895 94.9545 36.3731 95.6109 37.656C96.2602 38.9389 96.5884 40.4641 96.5884 42.2459V42.253ZM94.0911 42.253C94.0911 40.8917 93.8699 39.7514 93.4347 38.8177C92.9994 37.8841 92.4001 37.1785 91.6366 36.7009C90.8803 36.2234 90.0169 35.9811 89.0608 35.9811C88.1047 35.9811 87.2414 36.2234 86.485 36.7009C85.7287 37.1785 85.1293 37.8912 84.6941 38.8177C84.2588 39.7514 84.0377 40.8917 84.0377 42.253C84.0377 43.6143 84.2588 44.7547 84.6941 45.6884C85.1293 46.622 85.7287 47.3276 86.485 47.8052C87.2414 48.2827 88.0976 48.525 89.0608 48.525C90.0241 48.525 90.8732 48.2827 91.6366 47.8052C92.393 47.3276 92.9923 46.6149 93.4347 45.6884C93.8771 44.7618 94.0911 43.6143 94.0911 42.253Z" fill="white"/>
<path d="M106 50.8255C104.88 50.8255 103.881 50.6331 103.004 50.2482C102.126 49.8634 101.434 49.3288 100.92 48.6375C100.406 47.9461 100.135 47.155 100.1 46.2427H102.661C102.697 46.7345 102.861 47.1621 103.161 47.5256C103.46 47.8891 103.86 48.1671 104.345 48.3595C104.837 48.552 105.38 48.6517 105.979 48.6517C106.635 48.6517 107.221 48.5377 107.727 48.3096C108.234 48.0816 108.633 47.7608 108.926 47.3546C109.211 46.9412 109.361 46.4708 109.361 45.9291C109.361 45.3875 109.218 44.8743 108.933 44.4467C108.648 44.019 108.234 43.6841 107.684 43.4417C107.135 43.1994 106.478 43.0782 105.708 43.0782H104.295V41.0256H105.708C106.329 41.0256 106.871 40.9116 107.342 40.6906C107.813 40.4697 108.184 40.1561 108.448 39.757C108.712 39.3578 108.847 38.8874 108.847 38.3529C108.847 37.8184 108.733 37.3836 108.498 37.0059C108.262 36.6281 107.941 36.3216 107.52 36.1078C107.099 35.894 106.6 35.78 106.029 35.78C105.458 35.78 104.98 35.8798 104.509 36.0793C104.038 36.2789 103.653 36.5568 103.36 36.9275C103.068 37.2909 102.911 37.7328 102.889 38.246H100.449C100.478 37.3408 100.742 36.5497 101.256 35.8655C101.769 35.1813 102.44 34.6467 103.275 34.2619C104.11 33.877 105.044 33.6846 106.065 33.6846C107.085 33.6846 108.062 33.8913 108.84 34.3046C109.618 34.718 110.224 35.2739 110.653 35.9653C111.081 36.6566 111.288 37.4121 111.288 38.2317C111.288 39.1654 111.031 39.9565 110.51 40.6122C109.982 41.2608 109.29 41.7027 108.419 41.9236V42.0519C109.532 42.223 110.389 42.6577 111.002 43.3705C111.616 44.0832 111.915 44.967 111.908 46.0218C111.908 46.9412 111.659 47.7608 111.145 48.4878C110.631 49.2148 109.932 49.785 109.047 50.2055C108.162 50.626 107.149 50.8255 106 50.8255Z" fill="white"/>
<path d="M115.896 33.9072H118.957L124.28 46.8788H124.473L129.796 33.9072H132.857V50.5992H130.459V38.5185H130.302L125.372 50.5707H123.381L118.451 38.5114H118.294V50.5992H115.896V33.9072Z" fill="white"/>
<path d="M151.729 42.253C151.729 44.0349 151.401 45.5672 150.752 46.843C150.102 48.1259 149.203 49.1094 148.069 49.7936C146.934 50.4779 145.65 50.8271 144.209 50.8271C142.767 50.8271 141.469 50.485 140.334 49.7936C139.2 49.1094 138.308 48.1188 137.651 46.8359C137.002 45.553 136.674 44.0206 136.674 42.2459C136.674 40.4712 137.002 38.9318 137.651 37.656C138.301 36.3731 139.2 35.3895 140.334 34.7053C141.469 34.0211 142.76 33.6719 144.209 33.6719C145.657 33.6719 146.934 34.014 148.069 34.7053C149.203 35.3895 150.095 36.3731 150.752 37.656C151.401 38.9389 151.729 40.4641 151.729 42.2459V42.253ZM149.232 42.253C149.232 40.8917 149.011 39.7514 148.575 38.8177C148.14 37.8841 147.541 37.1785 146.777 36.7009C146.021 36.2234 145.158 35.9811 144.201 35.9811C143.245 35.9811 142.382 36.2234 141.626 36.7009C140.869 37.1785 140.27 37.8912 139.835 38.8177C139.399 39.7514 139.178 40.8917 139.178 42.253C139.178 43.6143 139.399 44.7547 139.835 45.6884C140.27 46.622 140.869 47.3276 141.626 47.8052C142.382 48.2827 143.238 48.525 144.201 48.525C145.165 48.525 146.014 48.2827 146.777 47.8052C147.534 47.3276 148.133 46.6149 148.575 45.6884C149.018 44.7618 149.232 43.6143 149.232 42.253Z" fill="white"/>
<path d="M153.919 50.5992L159.271 41.8612L154.29 33.9072H157.373L161.518 41.1271H167.94L172.05 33.9072H175.125L170.166 41.8755L175.489 50.5992H172.542L168.339 43.4791H161.083L156.823 50.5992H153.912H153.919ZM165.949 33.9072V50.5992H163.452V33.9072H165.949Z" fill="white"/>
<path d="M178.65 50.5992V33.9072H181.169V41.1627H189.503V33.9072H192.029V50.5992H189.503V43.3223H181.169V50.5992H178.65Z" fill="white"/>
<path d="M210.907 42.253C210.907 44.0349 210.579 45.5672 209.929 46.843C209.28 48.1259 208.381 49.1094 207.246 49.7936C206.112 50.4779 204.828 50.8271 203.386 50.8271C201.945 50.8271 200.646 50.485 199.512 49.7936C198.377 49.1094 197.486 48.1188 196.829 46.8359C196.18 45.553 195.852 44.0206 195.852 42.2459C195.852 40.4712 196.18 38.9318 196.829 37.656C197.478 36.3731 198.377 35.3895 199.512 34.7053C200.646 34.0211 201.938 33.6719 203.386 33.6719C204.835 33.6719 206.112 34.014 207.246 34.7053C208.381 35.3895 209.273 36.3731 209.929 37.656C210.579 38.9389 210.907 40.4641 210.907 42.2459V42.253ZM208.409 42.253C208.409 40.8917 208.188 39.7514 207.753 38.8177C207.318 37.8841 206.718 37.1785 205.955 36.7009C205.199 36.2234 204.335 35.9811 203.379 35.9811C202.423 35.9811 201.56 36.2234 200.803 36.7009C200.047 37.1785 199.448 37.8912 199.012 38.8177C198.577 39.7514 198.356 40.8917 198.356 42.253C198.356 43.6143 198.577 44.7547 199.012 45.6884C199.448 46.622 200.047 47.3276 200.803 47.8052C201.56 48.2827 202.416 48.525 203.379 48.525C204.342 48.525 205.192 48.2827 205.955 47.8052C206.711 47.3276 207.311 46.6149 207.753 45.6884C208.195 44.7618 208.409 43.6143 208.409 42.253Z" fill="white"/>
<path d="M228.611 39.3377H226.064C225.964 38.7961 225.785 38.3185 225.514 37.9052C225.25 37.4918 224.922 37.1425 224.537 36.8503C224.151 36.5652 223.716 36.3443 223.245 36.2017C222.774 36.0592 222.268 35.9808 221.733 35.9808C220.769 35.9808 219.906 36.2231 219.15 36.7078C218.393 37.1924 217.794 37.898 217.352 38.8317C216.916 39.7654 216.695 40.9057 216.695 42.2528C216.695 43.5998 216.916 44.7544 217.352 45.6952C217.787 46.6289 218.386 47.3345 219.15 47.812C219.913 48.2895 220.769 48.5318 221.718 48.5318C222.246 48.5318 222.746 48.4606 223.224 48.318C223.702 48.1755 224.13 47.9617 224.515 47.6766C224.901 47.3915 225.229 47.0494 225.5 46.636C225.771 46.2226 225.957 45.7522 226.057 45.2248H228.604C228.468 46.0516 228.204 46.8071 227.819 47.4984C227.427 48.1826 226.934 48.7742 226.328 49.2731C225.721 49.772 225.029 50.1568 224.251 50.4277C223.474 50.6985 222.625 50.8339 221.704 50.8339C220.256 50.8339 218.971 50.4918 217.837 49.8005C216.702 49.1091 215.818 48.1256 215.161 46.8427C214.505 45.5598 214.184 44.0274 214.184 42.2528C214.184 40.4781 214.512 38.9386 215.161 37.6628C215.81 36.3799 216.709 35.3964 217.837 34.7122C218.964 34.0279 220.256 33.6787 221.697 33.6787C222.582 33.6787 223.409 33.807 224.18 34.0565C224.951 34.3059 225.643 34.6765 226.256 35.1683C226.87 35.653 227.377 36.2445 227.783 36.943C228.183 37.6414 228.461 38.4397 228.597 39.3377H228.611Z" fill="white"/>
<path d="M231.493 36.0739V33.9072H244.422V36.0739H239.207V50.5992H236.695V36.0739H231.486H231.493Z" fill="white"/>
<path d="M247.963 50.5992V33.9072H258.437V36.0739H250.482V41.1627H257.888V43.3223H250.482V48.4325H258.537V50.5992H247.963Z" fill="white"/>
<path d="M262.508 33.9064H265.005V46.1652H265.162L273.667 33.9064H276V50.5984H273.482V38.3538H273.325L264.841 50.5984H262.515V33.9064H262.508ZM270.849 29.6729H272.854C272.854 30.5923 272.526 31.3335 271.876 31.9108C271.227 32.481 270.349 32.7732 269.243 32.7732C268.137 32.7732 267.274 32.4881 266.625 31.9108C265.976 31.3406 265.654 30.5923 265.654 29.6729H267.652C267.652 30.0791 267.774 30.4426 268.009 30.7562C268.252 31.0698 268.658 31.2266 269.243 31.2266C269.829 31.2266 270.221 31.0698 270.471 30.7633C270.72 30.4568 270.842 30.0934 270.842 29.68L270.849 29.6729Z" fill="white"/>
</g>
<defs>
<clipPath id="clip0_132_8555">
<rect width="276" height="53.7107" fill="white"/>
</clipPath>
</defs>
</svg>
