<svg width="221" height="43" viewBox="0 0 221 43" fill="none" xmlns="http://www.w3.org/2000/svg">
<g clip-path="url(#clip0_418_14273)">
<path d="M12.0987 17.9566C12.9784 18.6242 13.8638 19.2861 14.7778 19.908C20.5701 23.8623 24.6715 23.8451 30.5038 19.8681C35.3421 16.5701 39.4779 12.2278 45.1102 10.0824V8.62739C45.1102 3.86292 41.243 0 36.4732 0H8.63703C3.86724 0 0 3.86292 0 8.62739V9.82564C2.4106 11.2407 4.60413 12.4561 6.68913 13.8369C8.5742 15.0865 10.2936 16.5815 12.093 17.9566H12.0987ZM22.6951 9.48899C25.2542 9.5061 27.2649 11.8969 27.1792 14.8298C27.0993 17.6085 25.0828 19.7768 22.598 19.7483C19.9988 19.7197 17.9024 17.3347 17.971 14.4931C18.0395 11.7086 20.1417 9.47187 22.6893 9.48899H22.6951Z" fill="#252878"/>
<path d="M0 15.6399V34.3725C0 39.137 3.86724 42.9999 8.63703 42.9999H15.5547C17.0113 34.1956 7.76876 18.1962 0 15.6399Z" fill="#FE7700"/>
<path d="M29.6465 43H36.467C41.2368 43 45.104 39.1371 45.104 34.3727V15.7998C37.1525 18.8639 28.6354 33.6651 29.6465 43Z" fill="#FE7700"/>
<path d="M53.1151 21.891V2.30249H65.3395V4.84734H56.0684V10.2052H60.4554C61.9121 10.2052 63.1459 10.4392 64.1684 10.9128C65.1852 11.3864 65.9678 12.0482 66.5048 12.9098C67.0417 13.7714 67.3159 14.7871 67.3159 15.9511C67.3159 17.1151 67.0474 18.1479 66.5048 19.038C65.9621 19.9282 65.1852 20.63 64.1684 21.1321C63.1516 21.6342 61.9121 21.8853 60.4554 21.8853H53.1094L53.1151 21.891ZM56.0741 19.4032H60.4611C61.3066 19.4032 62.0149 19.2377 62.6033 18.9068C63.1916 18.5758 63.6315 18.1422 63.9342 17.6172C64.237 17.0866 64.3912 16.5217 64.3912 15.9169C64.3912 15.0382 64.0542 14.2793 63.3744 13.6459C62.7004 13.0125 61.7293 12.693 60.4611 12.693H56.0741V19.4089V19.4032Z" fill="black"/>
<path d="M71.6289 2.30249H74.5593V16.6872H74.7421L84.7215 2.30249H87.4578V21.891H84.4988V7.52343H84.316L74.3594 21.891H71.6289V2.30249Z" fill="black"/>
<path d="M92.5762 21.891V2.30249H99.5681C101.093 2.30249 102.356 2.58208 103.361 3.13556C104.361 3.68903 105.115 4.44793 105.612 5.40652C106.109 6.36512 106.36 7.44355 106.36 8.64179C106.36 9.84004 106.109 10.9299 105.606 11.8885C105.103 12.8471 104.349 13.606 103.344 14.1651C102.339 14.7243 101.076 15.0039 99.5566 15.0039H94.7526V12.499H99.2882C100.254 12.499 101.036 12.3335 101.636 11.9969C102.236 11.6602 102.676 11.2038 102.955 10.6218C103.235 10.0398 103.378 9.38357 103.378 8.64179C103.378 7.90002 103.235 7.24384 102.955 6.67324C102.676 6.09694 102.23 5.65188 101.63 5.32664C101.025 5.0014 100.236 4.84164 99.2539 4.84164H95.5409V21.8967H92.5819L92.5762 21.891Z" fill="black"/>
<path d="M109.211 21.891L115.494 11.6374L109.656 2.30249H113.278L118.139 10.7758H125.674L130.501 2.30249H134.111L128.29 11.6545L134.534 21.8853H131.078L126.148 13.5261H117.637L112.638 21.8853H109.222L109.211 21.891ZM123.332 2.30249V21.891H120.401V2.30249H123.332Z" fill="black"/>
<path d="M139.892 21.891H136.75L143.805 2.30249H147.221L154.275 21.891H151.134L145.593 5.863H145.438L139.886 21.891H139.892ZM140.417 14.2165H150.602V16.7043H140.417V14.2165Z" fill="black"/>
<path d="M53.1172 40.5091V27.1458H58.0184C58.9666 27.1458 59.7549 27.2998 60.3776 27.6136C61.0002 27.9275 61.4686 28.344 61.7771 28.8747C62.0855 29.4053 62.2398 29.9987 62.2398 30.6606C62.2398 31.2198 62.1369 31.6877 61.9313 32.0643C61.7257 32.4409 61.4515 32.749 61.1144 32.9772C60.7717 33.2055 60.3947 33.3709 59.9891 33.4736V33.6049C60.4347 33.6277 60.8688 33.7704 61.2915 34.0328C61.7142 34.2953 62.0684 34.6662 62.3483 35.1512C62.6282 35.6362 62.7653 36.2239 62.7653 36.9143C62.7653 37.6047 62.6054 38.2096 62.2855 38.7516C61.9656 39.2937 61.4743 39.7217 60.806 40.0355C60.1376 40.3493 59.2865 40.5091 58.2526 40.5091H53.1229H53.1172ZM55.1394 32.9259H57.8413C58.2926 32.9259 58.7038 32.8403 59.0637 32.6634C59.4293 32.4922 59.7149 32.2469 59.932 31.9273C60.1491 31.6135 60.2576 31.2369 60.2576 30.809C60.2576 30.2555 60.0634 29.7933 59.6749 29.4167C59.2865 29.0401 58.6924 28.8575 57.8927 28.8575H55.1336V32.9202L55.1394 32.9259ZM55.1394 38.7802H58.0526C59.018 38.7802 59.7092 38.5919 60.1319 38.221C60.5546 37.8501 60.7603 37.3765 60.7603 36.8173C60.7603 36.3951 60.6517 36.0071 60.4404 35.6533C60.229 35.2995 59.9206 35.02 59.5321 34.8088C59.138 34.5977 58.6696 34.495 58.1326 34.495H55.1451V38.7745L55.1394 38.7802Z" fill="black"/>
<path d="M77.3264 33.8277C77.3264 35.2542 77.0637 36.481 76.5439 37.5024C76.024 38.5294 75.3043 39.3168 74.396 39.8646C73.4878 40.4124 72.4595 40.692 71.3057 40.692C70.1518 40.692 69.1121 40.4181 68.2039 39.8646C67.2956 39.3168 66.5816 38.5237 66.056 37.4966C65.5362 36.4696 65.2734 35.2428 65.2734 33.822C65.2734 32.4012 65.5362 31.1688 66.056 30.1474C66.5758 29.1203 67.2956 28.3329 68.2039 27.7851C69.1121 27.2374 70.1461 26.9578 71.3057 26.9578C72.4653 26.9578 73.4878 27.2316 74.396 27.7851C75.3043 28.3329 76.0183 29.1203 76.5439 30.1474C77.0637 31.1745 77.3264 32.3955 77.3264 33.822V33.8277ZM75.3271 33.8277C75.3271 32.7379 75.15 31.8249 74.8016 31.0775C74.4531 30.33 73.9733 29.7651 73.3621 29.3828C72.7566 29.0005 72.0654 28.8065 71.2999 28.8065C70.5345 28.8065 69.8433 29.0005 69.2378 29.3828C68.6323 29.7651 68.1524 30.3357 67.804 31.0775C67.4555 31.8249 67.2785 32.7379 67.2785 33.8277C67.2785 34.9176 67.4555 35.8305 67.804 36.578C68.1524 37.3255 68.6323 37.8904 69.2378 38.2727C69.8433 38.655 70.5288 38.849 71.2999 38.849C72.0711 38.849 72.7509 38.655 73.3621 38.2727C73.9676 37.8904 74.4474 37.3198 74.8016 36.578C75.1558 35.8362 75.3271 34.9176 75.3271 33.8277Z" fill="black"/>
<path d="M84.8608 40.6918C83.964 40.6918 83.1643 40.5377 82.4616 40.2296C81.759 39.9215 81.2049 39.4935 80.7936 38.9401C80.3824 38.3866 80.1653 37.7532 80.1367 37.0229H82.1874C82.216 37.4166 82.3474 37.7589 82.5873 38.0499C82.8272 38.3409 83.1471 38.5635 83.5356 38.7175C83.9297 38.8716 84.3638 38.9515 84.8437 38.9515C85.3692 38.9515 85.8376 38.8602 86.2432 38.6776C86.6488 38.495 86.9687 38.2382 87.2029 37.913C87.4314 37.582 87.5513 37.2055 87.5513 36.7718C87.5513 36.3382 87.4371 35.9273 87.2086 35.585C86.9801 35.2426 86.6488 34.9744 86.2089 34.7804C85.7691 34.5864 85.2435 34.4894 84.6266 34.4894H83.4956V32.8461H84.6266C85.1236 32.8461 85.5577 32.7548 85.9347 32.5779C86.3117 32.4011 86.6088 32.15 86.8201 31.8305C87.0315 31.5109 87.14 31.1343 87.14 30.7064C87.14 30.2784 87.0486 29.9304 86.8601 29.628C86.6716 29.3255 86.4146 29.0802 86.0775 28.909C85.7405 28.7378 85.3407 28.6465 84.8837 28.6465C84.4267 28.6465 84.044 28.7264 83.6669 28.8862C83.2899 29.046 82.9815 29.2685 82.7473 29.5652C82.513 29.8562 82.3874 30.21 82.3702 30.6208H80.4166C80.4395 29.8961 80.6508 29.2628 81.0621 28.715C81.4734 28.1672 82.0104 27.7393 82.6787 27.4312C83.3471 27.1231 84.0954 26.969 84.9122 26.969C85.7291 26.969 86.5117 27.1345 87.1343 27.4654C87.757 27.7964 88.2425 28.2414 88.5852 28.7949C88.928 29.3484 89.0936 29.9532 89.0936 30.6094C89.0936 31.3569 88.888 31.9902 88.471 32.5152C88.0483 33.0344 87.4942 33.3882 86.7973 33.5651V33.6678C87.6884 33.8047 88.3739 34.1528 88.8651 34.7234C89.3564 35.294 89.5963 36.0015 89.5906 36.846C89.5906 37.5821 89.3907 38.2382 88.9794 38.8202C88.5681 39.4022 88.0083 39.8587 87.3 40.1954C86.5916 40.532 85.7805 40.6918 84.8608 40.6918Z" fill="black"/>
<path d="M92.7832 27.1458H95.2338L99.4952 37.5306H99.6494L103.911 27.1458H106.361V40.5091H104.442V30.8375H104.316L100.369 40.4862H98.7754L94.8282 30.8318H94.7025V40.5091H92.7832V27.1458Z" fill="black"/>
<path d="M121.469 33.8277C121.469 35.2542 121.206 36.481 120.686 37.5024C120.167 38.5294 119.447 39.3168 118.539 39.8646C117.63 40.4124 116.602 40.692 115.448 40.692C114.294 40.692 113.255 40.4181 112.346 39.8646C111.438 39.3168 110.724 38.5237 110.199 37.4966C109.679 36.4696 109.416 35.2428 109.416 33.822C109.416 32.4012 109.679 31.1688 110.199 30.1474C110.718 29.1203 111.438 28.3329 112.346 27.7851C113.255 27.2374 114.289 26.9578 115.448 26.9578C116.608 26.9578 117.63 27.2316 118.539 27.7851C119.447 28.3329 120.161 29.1203 120.686 30.1474C121.206 31.1745 121.469 32.3955 121.469 33.822V33.8277ZM119.47 33.8277C119.47 32.7379 119.293 31.8249 118.944 31.0775C118.596 30.33 118.116 29.7651 117.505 29.3828C116.899 29.0005 116.208 28.8065 115.443 28.8065C114.677 28.8065 113.986 29.0005 113.38 29.3828C112.775 29.7651 112.295 30.3357 111.947 31.0775C111.598 31.8249 111.421 32.7379 111.421 33.8277C111.421 34.9176 111.598 35.8305 111.947 36.578C112.295 37.3255 112.775 37.8904 113.38 38.2727C113.986 38.655 114.671 38.849 115.443 38.849C116.214 38.849 116.893 38.655 117.505 38.2727C118.11 37.8904 118.59 37.3198 118.944 36.578C119.298 35.8362 119.47 34.9176 119.47 33.8277Z" fill="black"/>
<path d="M123.224 40.5091L127.509 33.5136L123.522 27.1458H125.989L129.308 32.9259H134.449L137.739 27.1458H140.201L136.231 33.525L140.493 40.5091H138.134L134.769 34.8088H128.96L125.549 40.5091H123.219H123.224ZM132.855 27.1458V40.5091H130.856V27.1458H132.855Z" fill="black"/>
<path d="M143.023 40.5091V27.1458H145.04V32.9544H151.712V27.1458H153.734V40.5091H151.712V34.6833H145.04V40.5091H143.023Z" fill="black"/>
<path d="M168.848 33.8277C168.848 35.2542 168.585 36.481 168.065 37.5024C167.546 38.5294 166.826 39.3168 165.918 39.8646C165.009 40.4124 163.981 40.692 162.827 40.692C161.673 40.692 160.634 40.4181 159.725 39.8646C158.817 39.3168 158.103 38.5237 157.578 37.4966C157.058 36.4696 156.795 35.2428 156.795 33.822C156.795 32.4012 157.058 31.1688 157.578 30.1474C158.097 29.1203 158.817 28.3329 159.725 27.7851C160.634 27.2374 161.668 26.9578 162.827 26.9578C163.987 26.9578 165.009 27.2316 165.918 27.7851C166.826 28.3329 167.54 29.1203 168.065 30.1474C168.585 31.1745 168.848 32.3955 168.848 33.822V33.8277ZM166.849 33.8277C166.849 32.7379 166.672 31.8249 166.323 31.0775C165.975 30.33 165.495 29.7651 164.884 29.3828C164.278 29.0005 163.587 28.8065 162.821 28.8065C162.056 28.8065 161.365 29.0005 160.759 29.3828C160.154 29.7651 159.674 30.3357 159.325 31.0775C158.977 31.8249 158.8 32.7379 158.8 33.8277C158.8 34.9176 158.977 35.8305 159.325 36.578C159.674 37.3255 160.154 37.8904 160.759 38.2727C161.365 38.655 162.05 38.849 162.821 38.849C163.593 38.849 164.272 38.655 164.884 38.2727C165.489 37.8904 165.969 37.3198 166.323 36.578C166.677 35.8362 166.849 34.9176 166.849 33.8277Z" fill="black"/>
<path d="M183.021 31.4939H180.982C180.902 31.0602 180.759 30.6779 180.542 30.347C180.331 30.0161 180.068 29.7365 179.759 29.5025C179.451 29.2743 179.102 29.0974 178.725 28.9833C178.348 28.8692 177.943 28.8064 177.514 28.8064C176.743 28.8064 176.052 29.0004 175.446 29.3884C174.841 29.7764 174.361 30.3413 174.007 31.0888C173.659 31.8363 173.481 32.7492 173.481 33.8276C173.481 34.9061 173.659 35.8304 174.007 36.5836C174.355 37.3311 174.835 37.896 175.446 38.2783C176.058 38.6606 176.743 38.8546 177.503 38.8546C177.926 38.8546 178.325 38.7975 178.708 38.6834C179.091 38.5693 179.434 38.3981 179.742 38.1699C180.051 37.9416 180.313 37.6677 180.53 37.3368C180.748 37.0058 180.896 36.6292 180.976 36.207H183.015C182.907 36.8689 182.695 37.4737 182.387 38.0272C182.073 38.575 181.679 39.0486 181.193 39.448C180.708 39.8474 180.153 40.1555 179.531 40.3724C178.908 40.5892 178.228 40.6976 177.491 40.6976C176.332 40.6976 175.304 40.4237 174.395 39.8702C173.487 39.3167 172.779 38.5293 172.253 37.5023C171.728 36.4752 171.471 35.2484 171.471 33.8276C171.471 32.4069 171.733 31.1744 172.253 30.153C172.773 29.1259 173.493 28.3385 174.395 27.7907C175.298 27.243 176.332 26.9634 177.486 26.9634C178.194 26.9634 178.857 27.0661 179.474 27.2658C180.091 27.4655 180.645 27.7622 181.136 28.1559C181.627 28.5439 182.033 29.0175 182.358 29.5767C182.678 30.1359 182.901 30.775 183.01 31.4939H183.021Z" fill="black"/>
<path d="M185.33 28.8804V27.1458H195.681V28.8804H191.505V40.5091H189.494V28.8804H185.324H185.33Z" fill="black"/>
<path d="M198.514 40.5091V27.1458H206.899V28.8804H200.53V32.9544H206.46V34.6833H200.53V38.7745H206.979V40.5091H198.514Z" fill="black"/>
<path d="M210.16 27.1459H212.159V36.9601H212.285L219.094 27.1459H220.962V40.5092H218.946V30.7064H218.82L212.028 40.5092H210.166V27.1459H210.16ZM216.838 23.7566H218.443C218.443 24.4927 218.18 25.0861 217.66 25.5483C217.141 26.0047 216.438 26.2387 215.553 26.2387C214.667 26.2387 213.976 26.0104 213.456 25.5483C212.936 25.0918 212.679 24.4927 212.679 23.7566H214.279C214.279 24.0818 214.376 24.3728 214.564 24.6239C214.759 24.875 215.084 25.0005 215.553 25.0005C216.021 25.0005 216.335 24.875 216.535 24.6296C216.735 24.3842 216.832 24.0932 216.832 23.7623L216.838 23.7566Z" fill="black"/>
</g>
<defs>
<clipPath id="clip0_418_14273">
<rect width="220.961" height="43" fill="white"/>
</clipPath>
</defs>
</svg>
