<svg width="46.000000" height="43.000000" viewBox="0 0 46 43" fill="none" xmlns="http://www.w3.org/2000/svg" xmlns:xlink="http://www.w3.org/1999/xlink">
	<desc>
			Created with Pixso.
	</desc>
	<defs/>
	<path id="Vector" d="M12.09 17.95C12.97 18.62 13.86 19.28 14.77 19.9C20.57 23.86 24.67 23.84 30.5 19.86C35.34 16.57 39.47 12.22 45.1 10.08L45.1 8.62C45.1 3.86 41.24 0 36.47 0L8.63 0C3.86 0 0 3.86 0 8.62L0 9.82C2.41 11.24 4.6 12.45 6.68 13.83C8.57 15.08 10.29 16.58 12.09 17.95L12.09 17.95ZM22.69 9.48C25.25 9.5 27.26 11.89 27.17 14.82C27.09 17.6 25.08 19.77 22.59 19.74C19.99 19.71 17.9 17.33 17.97 14.49C18.03 11.7 20.14 9.47 22.68 9.48L22.69 9.48Z" fill="#252878" fill-opacity="1.000000" fill-rule="nonzero"/>
	<path id="Vector" d="M0 15.63L0 34.37C0 39.13 3.86 43 8.63 43L15.55 43C17.01 34.19 7.76 18.19 0 15.63Z" fill="#FE7700" fill-opacity="1.000000" fill-rule="nonzero"/>
	<path id="Vector" d="M29.64 43L36.46 43C41.23 43 45.1 39.13 45.1 34.37L45.1 15.79C37.15 18.86 28.63 33.66 29.64 43Z" fill="#FE7700" fill-opacity="1.000000" fill-rule="nonzero"/>
</svg>
