<svg width="20.000000" height="20.000000" viewBox="0 0 20 20" fill="none" xmlns="http://www.w3.org/2000/svg" xmlns:xlink="http://www.w3.org/1999/xlink">
	<desc>
			Created with Pixso.
	</desc>
	<defs>
		<clipPath id="clip382_24592">
			<rect id="Outline / Messages, Conversation / Plain" width="20.000000" height="20.000000" fill="white" fill-opacity="0"/>
		</clipPath>
	</defs>
	<g clip-path="url(#clip382_24592)">
		<path id="Vector" d="M15.11 3.02C14.14 3.19 12.83 3.63 10.98 4.24L6.8 5.64C5.32 6.13 4.25 6.49 3.49 6.81C2.69 7.15 2.41 7.38 2.32 7.54C2.04 8.03 2.04 8.63 2.32 9.11C2.41 9.27 2.69 9.51 3.49 9.84C4.25 10.17 5.32 10.52 6.8 11.02C6.83 11.03 6.85 11.03 6.87 11.04C7.19 11.15 7.45 11.23 7.68 11.35L12.12 6.97C12.37 6.72 12.77 6.72 13.02 6.97C13.27 7.22 13.27 7.63 13.02 7.88L8.6 12.25C8.74 12.49 8.83 12.77 8.95 13.11C8.95 13.14 8.96 13.16 8.97 13.18C9.46 14.67 9.82 15.74 10.14 16.5C10.48 17.29 10.72 17.58 10.87 17.67C11.36 17.95 11.96 17.95 12.45 17.67C12.6 17.58 12.84 17.29 13.18 16.5C13.5 15.74 13.86 14.67 14.35 13.18L15.74 9.01C16.36 7.16 16.8 5.85 16.97 4.87C17.14 3.89 17.01 3.48 16.76 3.23C16.51 2.98 16.09 2.84 15.11 3.02ZM14.89 1.76C15.98 1.57 16.95 1.61 17.67 2.32C18.38 3.03 18.42 4.01 18.23 5.1C18.04 6.17 17.57 7.58 16.98 9.35L15.56 13.62C15.07 15.07 14.7 16.19 14.35 17C14.02 17.78 13.65 18.45 13.09 18.77C12.21 19.29 11.11 19.29 10.23 18.77C9.67 18.45 9.3 17.78 8.97 17C8.62 16.19 8.25 15.07 7.76 13.62L7.75 13.59C7.58 13.08 7.53 12.94 7.46 12.83C7.38 12.71 7.27 12.61 7.15 12.53C7.04 12.45 6.91 12.4 6.4 12.23L6.37 12.22C4.92 11.74 3.8 11.37 2.99 11.02C2.2 10.69 1.54 10.32 1.21 9.76C0.7 8.87 0.7 7.78 1.21 6.9C1.54 6.33 2.2 5.96 2.99 5.63C3.8 5.29 4.92 4.91 6.37 4.43L10.63 3.01C12.41 2.42 13.81 1.95 14.89 1.76Z" fill="#FFFFFF" fill-opacity="1.000000" fill-rule="evenodd"/>
	</g>
</svg>
