<svg width="20.000000" height="20.000000" viewBox="0 0 20 20" fill="none" xmlns="http://www.w3.org/2000/svg" xmlns:xlink="http://www.w3.org/1999/xlink">
	<desc>
			Created with Pixso.
	</desc>
	<defs>
		<clipPath id="clip9_10379">
			<rect id="Outline / Arrows Action / Maximize" rx="5.000000" width="20.000000" height="20.000000" fill="white" fill-opacity="0"/>
		</clipPath>
	</defs>
	<g clip-path="url(#clip9_10379)">
		<path id="Vector" d="M12.82 1.66C12.82 1.32 13.1 1.04 13.44 1.04L18.33 1.04C18.67 1.04 18.95 1.32 18.95 1.66L18.95 6.54C18.95 6.89 18.67 7.17 18.33 7.17C17.98 7.17 17.7 6.89 17.7 6.54L17.7 3.17L12.93 7.94C12.69 8.18 12.29 8.18 12.05 7.94C11.81 7.69 11.81 7.3 12.05 7.05L16.82 2.29L13.44 2.29C13.1 2.29 12.82 2.01 12.82 1.66ZM7.16 18.33C7.16 18.67 6.89 18.95 6.54 18.95L1.66 18.95C1.31 18.95 1.03 18.67 1.03 18.33L1.03 13.45C1.03 13.1 1.31 12.82 1.66 12.82C2 12.82 2.28 13.1 2.28 13.45L2.28 16.82L7.05 12.05C7.29 11.81 7.69 11.81 7.93 12.05C8.18 12.3 8.18 12.69 7.93 12.94L3.17 17.7L6.54 17.7C6.89 17.7 7.16 17.99 7.16 18.33Z" fill="#0F0F0F" fill-opacity="0.700000" fill-rule="evenodd"/>
	</g>
</svg>
