<svg width="17.000000" height="17.000000" viewBox="0 0 17 17" fill="none" xmlns="http://www.w3.org/2000/svg" xmlns:xlink="http://www.w3.org/1999/xlink">
	<desc>
			Created with Pixso.
	</desc>
	<defs/>
	<path id="Vector (Stroke)" d="M-0.04 -0.04C0.26 -0.33 0.73 -0.33 1.02 -0.04L16.02 14.96C16.32 15.26 16.32 15.73 16.02 16.03C15.73 16.32 15.26 16.32 14.96 16.03L12.39 13.45C11.08 14.17 9.58 14.58 7.99 14.58C3.92 14.58 0.48 11.9 -0.67 8.22C-0.72 8.07 -0.72 7.92 -0.67 7.77C-0.13 6.02 0.93 4.51 2.33 3.39L-0.04 1.03C-0.33 0.73 -0.33 0.26 -0.04 -0.04ZM3.4 4.46C2.23 5.35 1.33 6.58 0.83 8C1.87 10.96 4.68 13.08 7.99 13.08C9.17 13.08 10.28 12.81 11.27 12.33L9.7 10.76C9.2 11.07 8.62 11.25 7.99 11.25C6.2 11.25 4.74 9.79 4.74 8C4.74 7.37 4.92 6.79 5.23 6.29L3.4 4.46ZM6.34 7.41C6.28 7.59 6.24 7.79 6.24 8C6.24 8.96 7.03 9.75 7.99 9.75C8.2 9.75 8.4 9.71 8.58 9.64L6.34 7.41ZM7.99 2.91C7.74 2.91 7.48 2.92 7.24 2.95C6.82 2.99 6.45 2.69 6.41 2.28C6.37 1.86 6.67 1.5 7.09 1.46C7.39 1.43 7.69 1.41 7.99 1.41C12.06 1.41 15.5 4.09 16.66 7.77C16.71 7.92 16.71 8.07 16.66 8.22C16.41 9.03 16.04 9.8 15.58 10.49C15.35 10.84 14.89 10.93 14.54 10.7C14.2 10.48 14.1 10.01 14.33 9.67C14.67 9.15 14.95 8.59 15.16 8C14.12 5.03 11.31 2.91 7.99 2.91Z" fill="#0F0F0F" fill-opacity="0.700000" fill-rule="evenodd"/>
</svg>
