<svg width="20.000000" height="20.000000" viewBox="0 0 20 20" fill="none" xmlns="http://www.w3.org/2000/svg" xmlns:xlink="http://www.w3.org/1999/xlink">
	<desc>
			Created with Pixso.
	</desc>
	<defs>
		<clipPath id="clip382_18988">
			<rect id="Outline / School / Bookmark" width="20.000000" height="20.000000" fill="white" fill-opacity="0"/>
		</clipPath>
	</defs>
	<g clip-path="url(#clip382_18988)">
		<path id="Vector" d="M5.8 1.18C6.86 1.04 8.22 1.04 9.95 1.04L10.04 1.04C11.77 1.04 13.13 1.04 14.19 1.18C15.29 1.33 16.16 1.64 16.84 2.33C17.52 3.02 17.83 3.9 17.98 5C18.12 6.08 18.12 7.45 18.12 9.2L18.12 13.44C18.12 14.7 18.12 15.7 18.04 16.44C17.96 17.18 17.79 17.85 17.31 18.3C16.92 18.66 16.43 18.88 15.9 18.94C15.25 19.02 14.63 18.7 14.03 18.28C13.42 17.84 12.68 17.19 11.74 16.36L11.71 16.33C11.28 15.95 10.99 15.69 10.74 15.51C10.5 15.34 10.36 15.28 10.24 15.25C10.08 15.22 9.91 15.22 9.75 15.25C9.63 15.28 9.49 15.34 9.25 15.51C9 15.69 8.71 15.95 8.28 16.33L8.25 16.36C7.31 17.19 6.57 17.84 5.96 18.28C5.36 18.7 4.75 19.02 4.09 18.94C3.56 18.88 3.07 18.66 2.68 18.3C2.2 17.85 2.03 17.18 1.95 16.44C1.87 15.7 1.87 14.7 1.87 13.44L1.87 9.2C1.87 7.45 1.87 6.08 2.01 5C2.16 3.9 2.47 3.02 3.15 2.33C3.83 1.64 4.7 1.33 5.8 1.18ZM5.96 2.42C5.01 2.55 4.45 2.79 4.04 3.21C3.62 3.63 3.38 4.2 3.25 5.17C3.12 6.15 3.12 7.44 3.12 9.24L3.12 13.4C3.12 14.71 3.12 15.64 3.19 16.31C3.27 17 3.4 17.26 3.53 17.38C3.73 17.56 3.97 17.67 4.23 17.7C4.4 17.72 4.67 17.66 5.24 17.26C5.79 16.87 6.48 16.26 7.45 15.4L7.47 15.38C7.88 15.02 8.21 14.72 8.51 14.5C8.82 14.28 9.14 14.1 9.5 14.03C9.83 13.96 10.16 13.96 10.49 14.03C10.85 14.1 11.17 14.28 11.48 14.5C11.78 14.72 12.11 15.02 12.52 15.38L12.54 15.4C13.51 16.26 14.2 16.87 14.75 17.26C15.32 17.66 15.59 17.72 15.76 17.7C16.02 17.67 16.26 17.56 16.46 17.38C16.59 17.26 16.72 17 16.8 16.31C16.87 15.64 16.87 14.71 16.87 13.4L16.87 9.24C16.87 7.44 16.87 6.15 16.74 5.17C16.61 4.2 16.37 3.63 15.95 3.21C15.54 2.79 14.98 2.55 14.03 2.42C13.06 2.29 11.78 2.29 10 2.29C8.21 2.29 6.93 2.29 5.96 2.42ZM6.87 5C6.87 4.65 7.15 4.37 7.5 4.37L12.5 4.37C12.84 4.37 13.12 4.65 13.12 5C13.12 5.34 12.84 5.62 12.5 5.62L7.5 5.62C7.15 5.62 6.87 5.34 6.87 5Z" fill="#0F0F0F" fill-opacity="0.700000" fill-rule="evenodd"/>
	</g>
</svg>
