<svg width="27.000000" height="26.000000" viewBox="0 0 27 26" fill="none" xmlns="http://www.w3.org/2000/svg" xmlns:xlink="http://www.w3.org/1999/xlink">
	<desc>
			Created with Pixso.
	</desc>
	<defs/>
	<path id="Star" d="M12.07 0.21L9 7.6C8.85 7.95 8.53 8.19 8.15 8.22L0.17 8.86C-0.71 8.93 -1.07 10.04 -0.4 10.62L5.68 15.82C5.97 16.07 6.09 16.45 6.01 16.82L4.15 24.6C3.94 25.47 4.88 26.15 5.64 25.69L12.47 21.51C12.79 21.32 13.2 21.32 13.52 21.51L20.35 25.69C21.11 26.15 22.05 25.47 21.84 24.6L19.98 16.82C19.9 16.45 20.02 16.07 20.31 15.82L26.39 10.62C27.06 10.04 26.7 8.93 25.82 8.86L17.84 8.22C17.46 8.19 17.14 7.95 16.99 7.6L13.92 0.21C13.58 -0.61 12.41 -0.61 12.07 0.21Z" fill="#FE7700" fill-opacity="1.000000" fill-rule="evenodd"/>
</svg>
