<svg width="16.000000" height="15.000000" viewBox="0 0 16 15" fill="none" xmlns="http://www.w3.org/2000/svg" xmlns:xlink="http://www.w3.org/1999/xlink">
	<desc>
			Created with Pixso.
	</desc>
	<defs/>
	<path id="Star" d="M6.57 0.21L5.22 3.47C5.07 3.82 4.75 4.06 4.37 4.09L0.86 4.37C-0.03 4.44 -0.39 5.54 0.29 6.12L2.97 8.42C3.25 8.66 3.37 9.05 3.29 9.41L2.47 12.84C2.26 13.71 3.2 14.39 3.96 13.93L6.97 12.09C7.29 11.89 7.7 11.89 8.02 12.09L11.03 13.93C11.79 14.39 12.73 13.71 12.52 12.84L11.7 9.41C11.62 9.05 11.74 8.66 12.02 8.42L14.7 6.12C15.38 5.54 15.02 4.44 14.13 4.37L10.62 4.09C10.24 4.06 9.92 3.82 9.77 3.47L8.42 0.21C8.08 -0.61 6.91 -0.61 6.57 0.21Z" fill="#FE7700" fill-opacity="1.000000" fill-rule="evenodd"/>
</svg>
