<svg width="32.000000" height="32.000000" viewBox="0 0 32 32" fill="none" xmlns="http://www.w3.org/2000/svg" xmlns:xlink="http://www.w3.org/1999/xlink">
	<desc>
			Created with Pixso.
	</desc>
	<defs>
		<clipPath id="clip382_18474">
			<rect id="social/ telegram " width="19.199999" height="19.199999" transform="translate(6.400391 6.398438)" fill="white" fill-opacity="0"/>
		</clipPath>
	</defs>
	<circle id="Ellipse 68" cx="16.000000" cy="16.000000" r="16.000000" fill="#C4C4C4" fill-opacity="0"/>
	<circle id="Ellipse 68" cx="16.000000" cy="16.000000" r="15.500000" stroke="#FE7700" stroke-opacity="1.000000" stroke-width="1.000000"/>
	<g clip-path="url(#clip382_18474)">
		<path id="XMLID 497" d="M9.05 15.83L12.37 17.07L13.65 21.2C13.73 21.47 14.06 21.57 14.27 21.39L16.12 19.88C16.31 19.73 16.59 19.72 16.79 19.86L20.13 22.28C20.36 22.45 20.68 22.33 20.74 22.05L23.18 10.3C23.25 9.99 22.95 9.74 22.66 9.85L9.04 15.1C8.71 15.23 8.71 15.71 9.05 15.83ZM13.44 16.41L19.93 12.42C20.04 12.35 20.16 12.51 20.07 12.6L14.71 17.57C14.52 17.75 14.4 17.98 14.37 18.24L14.19 19.59C14.16 19.77 13.91 19.79 13.86 19.61L13.16 17.15C13.08 16.87 13.19 16.57 13.44 16.41Z" fill="#FE7700" fill-opacity="1.000000" fill-rule="nonzero"/>
	</g>
</svg>
