<svg width="20.000000" height="20.000000" viewBox="0 0 20 20" fill="none" xmlns="http://www.w3.org/2000/svg" xmlns:xlink="http://www.w3.org/1999/xlink">
	<desc>
			Created with Pixso.
	</desc>
	<defs>
		<clipPath id="clip191_6101">
			<rect id="Outline / Users / User Rounded" width="20.000000" height="20.000000" fill="white" fill-opacity="0"/>
		</clipPath>
	</defs>
	<g clip-path="url(#clip191_6101)">
		<path id="Vector" d="M6.03 5C6.03 2.81 7.81 1.04 9.99 1.04C12.18 1.04 13.95 2.81 13.95 5C13.95 7.18 12.18 8.95 9.99 8.95C7.81 8.95 6.03 7.18 6.03 5ZM9.99 2.29C8.5 2.29 7.28 3.5 7.28 5C7.28 6.49 8.5 7.7 9.99 7.7C11.49 7.7 12.7 6.49 12.7 5C12.7 3.5 11.49 2.29 9.99 2.29ZM5.56 11.26C6.73 10.6 8.29 10.2 9.99 10.2C11.69 10.2 13.26 10.6 14.43 11.26C15.58 11.92 16.45 12.92 16.45 14.16C16.45 15.4 15.58 16.41 14.43 17.06C13.26 17.73 11.69 18.12 9.99 18.12C8.29 18.12 6.73 17.73 5.56 17.06C4.41 16.41 3.53 15.4 3.53 14.16C3.53 12.92 4.41 11.92 5.56 11.26ZM6.18 12.35C5.21 12.9 4.78 13.56 4.78 14.16C4.78 14.76 5.21 15.43 6.18 15.98C7.12 16.52 8.47 16.87 9.99 16.87C11.51 16.87 12.86 16.52 13.81 15.98C14.77 15.43 15.2 14.76 15.2 14.16C15.2 13.56 14.77 12.9 13.81 12.35C12.86 11.81 11.51 11.45 9.99 11.45C8.47 11.45 7.12 11.81 6.18 12.35Z" fill="#0F0F0F" fill-opacity="0.700000" fill-rule="evenodd"/>
	</g>
</svg>
