<svg width="32.000000" height="32.000000" viewBox="0 0 32 32" fill="none" xmlns="http://www.w3.org/2000/svg" xmlns:xlink="http://www.w3.org/1999/xlink">
	<desc>
			Created with Pixso.
	</desc>
	<defs>
		<clipPath id="clip382_18478">
			<rect id="VK_Monochrome_Compact_Logo 1" width="17.920000" height="17.920000" transform="translate(7.039062 7.039062)" fill="white" fill-opacity="0"/>
		</clipPath>
	</defs>
	<circle id="Ellipse 127" cx="16.000000" cy="16.000000" r="15.500000" stroke="#FE7700" stroke-opacity="1.000000" stroke-width="1.000000"/>
	<rect id="VK_Monochrome_Compact_Logo 1" width="17.920000" height="17.920000" transform="translate(7.039062 7.039062)" fill="#FFFFFF" fill-opacity="0"/>
	<g clip-path="url(#clip382_18478)">
		<path id="Vector" d="M7.39 10.87C7.53 17.27 10.92 21.11 16.87 21.11L17.21 21.11L17.21 17.46C19.4 17.66 21.05 19.17 21.72 21.11L24.81 21.11C23.96 18.2 21.73 16.59 20.33 15.98C21.73 15.22 23.69 13.37 24.16 10.87L21.35 10.87C20.74 12.91 18.93 14.75 17.21 14.92L17.21 10.87L14.41 10.87L14.41 17.97C12.66 17.56 10.47 15.57 10.37 10.87L7.39 10.87Z" fill="#FE7700" fill-opacity="1.000000" fill-rule="nonzero"/>
	</g>
</svg>
