<svg width="32.000000" height="32.000000" viewBox="0 0 32 32" fill="none" xmlns="http://www.w3.org/2000/svg" xmlns:xlink="http://www.w3.org/1999/xlink">
	<desc>
			Created with Pixso.
	</desc>
	<defs>
		<clipPath id="clip382_18482">
			<rect id="YOUTUBE" width="17.920000" height="17.920000" transform="translate(7.041016 7.039062)" fill="white" fill-opacity="0"/>
		</clipPath>
	</defs>
	<circle id="Ellipse 127" cx="16.000000" cy="16.000000" r="15.500000" stroke="#FE7700" stroke-opacity="1.000000" stroke-width="1.000000"/>
	<rect id="YOUTUBE" width="17.920000" height="17.920000" transform="translate(7.041016 7.039062)" fill="#FFFFFF" fill-opacity="0"/>
	<g clip-path="url(#clip382_18482)">
		<path id="Vector" d="M16.15 22.75C14.15 22.69 12.25 22.64 10.35 22.56C9.94 22.55 9.53 22.48 9.13 22.39C8.38 22.21 7.86 21.76 7.59 21.02C7.38 20.43 7.3 19.82 7.25 19.19C7.12 17.73 7.12 16.26 7.18 14.8C7.22 13.98 7.24 13.14 7.46 12.34C7.59 11.86 7.75 11.39 8.14 11.05C8.55 10.68 9.03 10.46 9.58 10.44C11.08 10.36 12.57 10.27 14.07 10.26C16.08 10.23 18.1 10.26 20.12 10.3C20.99 10.32 21.87 10.37 22.74 10.48C23.53 10.58 24.12 11.02 24.43 11.79C24.67 12.39 24.76 13 24.82 13.63C24.95 15.21 24.96 16.79 24.88 18.37C24.84 19.17 24.8 19.98 24.58 20.76C24.32 21.65 23.77 22.25 22.85 22.45C22.49 22.52 22.12 22.55 21.76 22.57C19.85 22.63 17.95 22.69 16.15 22.75ZM14.22 18.77C15.81 17.94 17.39 17.12 19 16.29C17.39 15.45 15.82 14.62 14.22 13.79C14.22 15.46 14.22 17.1 14.22 18.77Z" fill="#FE7700" fill-opacity="1.000000" fill-rule="evenodd"/>
	</g>
</svg>
